<svg xmlns="http://www.w3.org/2000/svg" width="22" height="22" viewBox="0 0 24 18">
  <path id="Icon_metro-video-camera" data-name="Icon metro-video-camera" d="M11.571,9.534a3.75,3.75,0,1,1,3.75,3.75,3.75,3.75,0,0,1-3.75-3.75Zm-9,0a3.75,3.75,0,1,1,3.75,3.75A3.75,3.75,0,0,1,2.571,9.534Zm18,7.5v-2.25a1.5,1.5,0,0,0-1.5-1.5h-15a1.5,1.5,0,0,0-1.5,1.5v7.5a1.5,1.5,0,0,0,1.5,1.5h15a1.5,1.5,0,0,0,1.5-1.5v-2.25l6,3.75v-10.5Zm-3,3.75h-12v-4.5h12Z" transform="translate(-2.571 -5.784)" fill="#bcbcbc"/>
</svg>
