<svg xmlns="http://www.w3.org/2000/svg" width="20" height="20" viewBox="0 0 18.6 21.257">
  <path id="Icon_awesome-building" data-name="Icon awesome-building" d="M18.1,19.928h-.83V1a1,1,0,0,0-1-1H2.325a1,1,0,0,0-1,1V19.928H.5a.5.5,0,0,0-.5.5v.83H18.6v-.83A.5.5,0,0,0,18.1,19.928ZM5.314,3.155a.5.5,0,0,1,.5-.5H7.473a.5.5,0,0,1,.5.5V4.816a.5.5,0,0,1-.5.5H5.812a.5.5,0,0,1-.5-.5Zm0,3.986a.5.5,0,0,1,.5-.5H7.473a.5.5,0,0,1,.5.5V8.8a.5.5,0,0,1-.5.5H5.812a.5.5,0,0,1-.5-.5Zm2.159,6.145H5.812a.5.5,0,0,1-.5-.5V11.127a.5.5,0,0,1,.5-.5H7.473a.5.5,0,0,1,.5.5v1.661A.5.5,0,0,1,7.473,13.285Zm3.155,6.643H7.971V16.441a.5.5,0,0,1,.5-.5H10.13a.5.5,0,0,1,.5.5Zm2.657-7.141a.5.5,0,0,1-.5.5H11.127a.5.5,0,0,1-.5-.5V11.127a.5.5,0,0,1,.5-.5h1.661a.5.5,0,0,1,.5.5Zm0-3.986a.5.5,0,0,1-.5.5H11.127a.5.5,0,0,1-.5-.5V7.141a.5.5,0,0,1,.5-.5h1.661a.5.5,0,0,1,.5.5Zm0-3.986a.5.5,0,0,1-.5.5H11.127a.5.5,0,0,1-.5-.5V3.155a.5.5,0,0,1,.5-.5h1.661a.5.5,0,0,1,.5.5Z" fill="#bcbcbc"/>
</svg>
