<svg xmlns="http://www.w3.org/2000/svg" width="41.527" height="57.47" viewBox="0 0 41.527 57.47">
  <path id="Icon_metro-bitcoin" data-name="Icon metro-bitcoin" d="M46.319,22.09q.622,6.286-4.524,8.911a10.372,10.372,0,0,1,6.044,3.557q2,2.59,1.554,7.391a13.057,13.057,0,0,1-1.122,4.317,9.53,9.53,0,0,1-2.228,3.074,11.337,11.337,0,0,1-3.35,2.02,20.412,20.412,0,0,1-4.2,1.192,41.614,41.614,0,0,1-5.025.518v8.807H28.152V53.208q-2.763,0-4.214-.035v8.7H18.62V53.07q-.622,0-1.865-.017t-1.9-.017H7.948l1.071-6.32h3.834a1.845,1.845,0,0,0,2-1.761V31.07h.553a3.512,3.512,0,0,0-.553-.035V21.123a2.743,2.743,0,0,0-3.074-2.349H7.948V13.11l7.322.035q2.21,0,3.35-.035v-8.7h5.319v8.531q2.832-.069,4.213-.069V4.407h5.319v8.7a30.813,30.813,0,0,1,4.835.777,15.706,15.706,0,0,1,3.9,1.554,7.912,7.912,0,0,1,2.849,2.694,8.813,8.813,0,0,1,1.261,3.955ZM38.894,40.913a4.608,4.608,0,0,0-.518-2.21A5.179,5.179,0,0,0,37.1,37.114a6.558,6.558,0,0,0-1.986-1.053,16.767,16.767,0,0,0-2.262-.639,20.423,20.423,0,0,0-2.556-.311q-1.519-.1-2.383-.1t-2.228.035q-1.364.034-1.641.035V46.75q.276,0,1.278.017t1.658.017q.656,0,1.83-.052t2.021-.138q.846-.086,1.969-.294a13.219,13.219,0,0,0,1.917-.484,11.736,11.736,0,0,0,1.641-.725,4.786,4.786,0,0,0,1.364-1.036,4.882,4.882,0,0,0,.846-1.381,4.578,4.578,0,0,0,.328-1.761Zm-2.452-16.44a4.533,4.533,0,0,0-.432-2.02A4.813,4.813,0,0,0,34.956,21a5.164,5.164,0,0,0-1.658-.967,11.87,11.87,0,0,0-1.9-.57,19.016,19.016,0,0,0-2.124-.276q-1.261-.1-2-.086t-1.865.035q-1.123.017-1.364.017v10.6q.173,0,1.191.017t1.606,0q.587-.017,1.727-.069a14.606,14.606,0,0,0,1.9-.19q.76-.138,1.779-.38A5.856,5.856,0,0,0,33.92,28.5a9.484,9.484,0,0,0,1.278-.933,3.323,3.323,0,0,0,.933-1.33,4.79,4.79,0,0,0,.311-1.761Z" transform="translate(-7.948 -4.407)" fill="#da3182"/>
</svg>
