<!-- <svg xmlns="http://www.w3.org/2000/svg" width="20" height="20" viewBox="0 0 22.666 17">
  <path id="Icon_metro-profile" data-name="Icon metro-profile" d="M25.546,10.141H23.961V7.762l-3.272-.05.017,2.429H10.874l.067-2.429-3.2.05v2.429l-1.619-.05A1.62,1.62,0,0,0,4.5,11.76V23.093a1.62,1.62,0,0,0,1.619,1.619H25.546a1.62,1.62,0,0,0,1.619-1.619V11.76A1.62,1.62,0,0,0,25.546,10.141ZM21.5,8.522h1.619V11.76H21.5ZM10.975,14.036a2.107,2.107,0,0,1,1.771,2.327,2.107,2.107,0,0,1-1.771,2.327A2.107,2.107,0,0,1,9.2,16.363a2.107,2.107,0,0,1,1.771-2.327ZM8.546,8.522h1.619V11.76H8.546ZM7.467,21.432s.192-1.54.628-1.83a6.209,6.209,0,0,1,1.692-.484s.814.87,1.161.87,1.16-.87,1.16-.87A6.189,6.189,0,0,1,13.8,19.6c.512.342.64,1.83.64,1.83H7.467Zm16.46-.767H16.641v-.81h7.286Zm0-1.619H16.641v-.81h7.286Zm0-1.619H16.641v-.81h7.286Zm0-1.619H16.641V15h7.286Z" transform="translate(-4.499 -7.712)" fill="#c4c4c4"/>
</svg> -->
<svg xmlns="http://www.w3.org/2000/svg" viewBox="0 0 576 512"><!--! Font Awesome Pro 6.1.1 by @fontawesome - https://fontawesome.com License - https://fontawesome.com/license (Commercial License) Copyright 2022 Fonticons, Inc. --><path d="M512 32H64C28.65 32 0 60.65 0 96v320c0 35.35 28.65 64 64 64h448c35.35 0 64-28.65 64-64V96C576 60.65 547.3 32 512 32zM176 128c35.35 0 64 28.65 64 64s-28.65 64-64 64s-64-28.65-64-64S140.7 128 176 128zM272 384h-192C71.16 384 64 376.8 64 368C64 323.8 99.82 288 144 288h64c44.18 0 80 35.82 80 80C288 376.8 280.8 384 272 384zM496 320h-128C359.2 320 352 312.8 352 304S359.2 288 368 288h128C504.8 288 512 295.2 512 304S504.8 320 496 320zM496 256h-128C359.2 256 352 248.8 352 240S359.2 224 368 224h128C504.8 224 512 231.2 512 240S504.8 256 496 256zM496 192h-128C359.2 192 352 184.8 352 176S359.2 160 368 160h128C504.8 160 512 167.2 512 176S504.8 192 496 192z"/></svg>