<svg xmlns="http://www.w3.org/2000/svg" width="53.461" height="53.463" viewBox="0 0 53.461 53.463">
  <g id="noun-timer-384091" transform="translate(-98.857 -28.43)">
    <path id="Path_1558" data-name="Path 1558" d="M221.089,148.649c.972-.954,1.86-.268,2.82.7l12.185,11.04a2.47,2.47,0,0,1-3.523,3.464L221.8,151.4c-.954-.972-1.681-1.789-.709-2.754Z" transform="translate(-108.81 -107.013)" fill="#da3182"/>
    <path id="Path_1559" data-name="Path 1559" d="M125.562,28.432a2.456,2.456,0,1,0,.268,4.882,21.824,21.824,0,1,1-15.988,6.695,2.45,2.45,0,1,0-3.249-3.654,26.731,26.731,0,1,0,18.968-7.922Z" transform="translate(0 0)" fill="#da3182"/>
  </g>
</svg>
