<!-- <svg xmlns="http://www.w3.org/2000/svg" width="20" height="20" viewBox="0 0 19.746 18.336">
  <path id="Icon_metro-user" data-name="Icon metro-user" d="M15.782,18.536V17.373A6.3,6.3,0,0,0,18.6,12.131c0-3.505,0-6.347-4.231-6.347s-4.231,2.842-4.231,6.347a6.3,6.3,0,0,0,2.821,5.241v1.163C8.177,18.927,4.5,21.278,4.5,24.12H24.245c0-2.842-3.678-5.193-8.463-5.584Z" transform="translate(-4.499 -5.784)" fill="#c4c4c4"/>
</svg> -->
<svg xmlns="http://www.w3.org/2000/svg" viewBox="0 0 448 512"><!--! Font Awesome Pro 6.1.1 by @fontawesome - https://fontawesome.com License - https://fontawesome.com/license (Commercial License) Copyright 2022 Fonticons, Inc. --><path d="M224 256c70.7 0 128-57.31 128-128s-57.3-128-128-128C153.3 0 96 57.31 96 128S153.3 256 224 256zM274.7 304H173.3C77.61 304 0 381.6 0 477.3c0 19.14 15.52 34.67 34.66 34.67h378.7C432.5 512 448 496.5 448 477.3C448 381.6 370.4 304 274.7 304z"/></svg>
