<svg xmlns="http://www.w3.org/2000/svg" width="24" height="24"  viewBox="0 0 25.816 15.953">
  <g id="noun-affiliate-72960" transform="translate(-0.008 -63.85)">
    <path id="Path_1567" data-name="Path 1567" d="M180.392,329.485a1.743,1.743,0,0,1-1.047.356,1.692,1.692,0,0,1-1.7-1.678,1.634,1.634,0,0,1,1.623-1.678,1.342,1.342,0,0,1,.824.283.426.426,0,0,0,.473-.708,2.193,2.193,0,0,0-1.3-.426,2.476,2.476,0,0,0-2.475,2.529,2.545,2.545,0,0,0,2.555,2.529,2.581,2.581,0,0,0,1.567-.534.425.425,0,0,0-.519-.674Z" transform="translate(-170.274 -252.149)" fill="#fff"/>
    <path id="Path_1568" data-name="Path 1568" d="M412.509,328.206a2.475,2.475,0,0,0-2.475-2.529,2.184,2.184,0,0,0-1.3.426.426.426,0,0,0,.472.708,1.33,1.33,0,0,1,.825-.283,1.632,1.632,0,0,1,1.622,1.677,1.693,1.693,0,0,1-1.7,1.679,1.739,1.739,0,0,1-1.047-.356.426.426,0,0,0-.521.674,2.592,2.592,0,0,0,1.569.534,2.547,2.547,0,0,0,2.554-2.53Z" transform="translate(-393.19 -252.191)" fill="#fff"/>
    <path id="Path_1569" data-name="Path 1569" d="M262.37,382.016a.426.426,0,0,0,.426.426h5.11a.426.426,0,1,0,0-.852H262.8A.426.426,0,0,0,262.37,382.016Z" transform="translate(-252.706 -306.046)" fill="#fff"/>
    <path id="Path_1570" data-name="Path 1570" d="M369.8,247.452c.082,0,.158.02.238.028a6.861,6.861,0,0,1-1.833-2.513,11.331,11.331,0,0,0-1.816,2.473H369.8Z" transform="translate(-352.892 -174.451)" fill="#fff"/>
    <path id="Path_1571" data-name="Path 1571" d="M424.563,73.036c2.1,0,3.811-3.25,3.811-5.373a3.812,3.812,0,1,0-7.624,0C420.75,69.784,422.458,73.036,424.563,73.036Z" transform="translate(-405.257)" fill="#fff"/>
    <path id="Path_1572" data-name="Path 1572" d="M424.363,245.11c-.794,1.792-2.234,3.367-3.992,3.367a2.573,2.573,0,0,1-.433-.049,3.005,3.005,0,0,1-1.972,5.117v-.005H416.4a8.665,8.665,0,0,0,3.967.852h0c3.6,0,6.52-1.934,6.52-4.445,0-1.443-.968-3.22-2.527-4.836Z" transform="translate(-401.066 -174.589)" fill="#fff"/>
    <path id="Path_1573" data-name="Path 1573" d="M8.387,253.4a2.98,2.98,0,0,1-2.842-2.973,3.02,3.02,0,0,1,.835-2.111c-1.692-.089-3.075-1.615-3.846-3.355C.977,246.6.008,248.43.008,249.874a3.908,3.908,0,0,0,1.971,3.214,8.125,8.125,0,0,0,4.548,1.163h0a8.74,8.74,0,0,0,3.857-.852h-2v0Z" transform="translate(0 -174.449)" fill="#fff"/>
    <path id="Path_1574" data-name="Path 1574" d="M237.4,247.566h3.618a11.247,11.247,0,0,0-1.84-2.468,6.894,6.894,0,0,1-1.778,2.468Z" transform="translate(-228.655 -174.577)" fill="#fff"/>
    <path id="Path_1575" data-name="Path 1575" d="M77.423,73.036c2.1,0,3.811-3.25,3.811-5.373a3.812,3.812,0,1,0-7.624,0C73.612,69.784,75.319,73.036,77.423,73.036Z" transform="translate(-70.893)" fill="#fff"/>
  </g>
</svg>
