<svg xmlns="http://www.w3.org/2000/svg" width="20" height="20" viewBox="0 0 22.504 19.691">
  <path id="Icon_awesome-headphones-alt" data-name="Icon awesome-headphones-alt" d="M7.033,13.5h-.7a2.815,2.815,0,0,0-2.813,2.818v2.8a2.816,2.816,0,0,0,2.813,2.818h.7a1.408,1.408,0,0,0,1.407-1.409V14.911A1.408,1.408,0,0,0,7.033,13.5Zm9.142,0h-.7a1.408,1.408,0,0,0-1.407,1.409v5.621a1.408,1.408,0,0,0,1.407,1.409h.7a2.816,2.816,0,0,0,2.813-2.818v-2.8A2.816,2.816,0,0,0,16.175,13.5ZM11.252,2.25A11.467,11.467,0,0,0,0,13.5v4.923a.7.7,0,0,0,.7.7h.7a.7.7,0,0,0,.7-.7V13.5a9.142,9.142,0,0,1,18.285,0v4.923a.7.7,0,0,0,.7.7h.7a.7.7,0,0,0,.7-.7V13.5A11.467,11.467,0,0,0,11.252,2.25Z" transform="translate(0 -2.25)" fill="#bcbcbc"/>
</svg>
